<?xml version="1.0" standalone="no"?>
<!DOCTYPE svg PUBLIC "-//W3C//DTD SVG 20010904//EN"
 "http://www.w3.org/TR/2001/REC-SVG-20010904/DTD/svg10.dtd">
<svg version="1.0" xmlns="http://www.w3.org/2000/svg"
 width="512.000000pt" height="512.000000pt" viewBox="0 0 512.000000 512.000000"
 preserveAspectRatio="xMidYMid meet">
<metadata>
Created by potrace 1.14, written by Peter Selinger 2001-2017
</metadata>
<g transform="translate(0.000000,512.000000) scale(0.100000,-0.100000)"
fill="#000000" stroke="none">
<path d="M2328 4633 l-78 -4 0 -69 c0 -64 -2 -70 -22 -75 -31 -6 -149 -14
-231 -14 l-68 0 2 -66 c1 -36 -2 -70 -7 -75 -5 -5 -43 -10 -84 -12 l-75 -3 -5
-75 -5 -75 -75 -5 -75 -5 -5 -75 -5 -75 -75 -5 -75 -5 -5 -75 -5 -75 -75 -5
-75 -5 -9 -152 -8 -153 -68 0 c-57 0 -70 -3 -74 -17 -2 -10 -8 -82 -12 -160
l-7 -142 -71 -3 -71 -3 -5 -160 -5 -160 -75 -5 -75 -5 -5 -155 -5 -155 -80 -5
-80 -5 -3 -72 -3 -73 -67 0 c-40 0 -73 -5 -80 -12 -7 -7 -12 -40 -12 -80 l0
-68 -70 0 c-64 0 -70 -2 -75 -22 -3 -13 -4 -122 -3 -243 l3 -220 75 -5 75 -5
5 -75 5 -75 75 -5 75 -5 5 -155 5 -155 80 0 80 0 3 73 3 72 42 0 c23 0 94 -3
157 -8 l115 -7 -80 -5 -80 -5 -5 -45 -5 -45 -60 -5 -60 -5 85 -7 c47 -5 144
-8 216 -8 85 0 134 -4 142 -12 7 -7 36 -10 73 -9 53 2 61 0 55 -14 -3 -9 -6
-34 -6 -56 0 -39 0 -39 -39 -39 -40 0 -40 0 -43 43 -4 62 -23 51 -26 -15 l-3
-58 71 0 71 0 -2 63 c-1 35 1 69 5 75 4 8 36 12 81 12 41 0 76 4 79 8 3 5 7
76 10 158 l4 149 71 -4 c81 -4 79 -6 83 109 l3 65 73 3 73 3 -3 71 -3 72 -67
-3 -68 -2 0 78 c0 48 -5 84 -12 91 -7 7 -42 12 -85 12 l-73 0 0 70 c0 40 -4
70 -10 71 -5 0 -37 0 -70 0 -33 0 -65 0 -71 0 -6 -1 -9 -25 -8 -66 1 -36 -2
-70 -7 -75 -5 -5 -40 -10 -79 -12 l-70 -3 -5 -155 -5 -155 -157 -9 -158 -8 0
-69 0 -69 -80 0 -80 0 0 70 0 70 -73 0 c-43 0 -78 5 -85 12 -7 7 -12 40 -12
80 l0 68 -69 0 c-39 0 -73 5 -77 11 -3 6 -3 77 1 159 l7 148 72 6 c39 3 106 8
149 12 l77 6 0 69 c0 78 -2 77 105 81 l60 3 5 155 5 155 75 5 75 5 5 155 5
155 75 5 75 5 3 70 c2 38 8 75 14 83 9 10 31 13 77 10 l66 -3 -3 61 c-2 35 1
71 8 84 11 20 18 22 83 18 l72 -3 -3 66 c-3 46 0 68 10 77 8 6 45 12 83 14
l70 3 5 75 5 75 140 3 c195 4 189 7 183 -79 -3 -38 -3 -69 1 -69 3 -1 42 -2
86 -4 44 -2 112 -6 150 -8 l70 -3 1 -67 c2 -98 2 -98 82 -98 l69 0 9 -152 9
-153 75 -5 75 -5 9 -152 9 -153 68 0 c56 0 69 -3 73 -17 2 -10 8 -82 12 -159
l6 -142 142 -6 c77 -4 149 -10 159 -12 16 -5 18 -15 16 -70 -1 -35 1 -67 4
-71 4 -3 36 -5 72 -4 79 3 77 9 73 -184 l-3 -140 -60 -3 c-108 -4 -107 -4
-104 -76 1 -34 0 -67 -4 -72 -3 -5 -72 -9 -154 -9 l-148 0 -5 75 -5 75 -75 5
-75 5 -1 67 c-2 99 -1 98 -87 98 l-74 0 5 69 c4 67 4 70 -20 76 -13 3 -51 5
-83 3 l-60 -3 -5 -75 -5 -75 -75 -5 -75 -5 -3 -140 c-4 -192 -7 -185 77 -185
l68 0 9 -152 9 -153 75 -5 75 -5 5 -80 5 -80 73 -3 c41 -2 79 2 86 8 9 7 290
9 882 8 l869 -3 2 235 c2 129 4 271 6 315 l3 80 62 -4 c82 -4 92 5 92 84 0 94
1 95 81 95 l69 0 0 70 0 70 -69 0 c-80 0 -81 2 -81 90 0 88 -2 90 -80 90 l-68
0 -6 73 c-3 39 -8 107 -12 150 l-6 77 -69 0 c-78 0 -77 -2 -81 105 l-3 60 -80
5 -80 5 -3 73 -3 72 -68 0 c-80 0 -81 2 -81 90 0 88 -2 90 -80 90 l-67 0 -7
143 c-4 78 -10 150 -12 160 -4 14 -17 17 -73 17 l-68 0 -9 153 -9 152 -75 5
-75 5 -9 152 -9 152 -71 3 -71 3 -5 80 -5 80 -152 9 -153 8 0 68 c0 57 -3 70
-17 74 -10 2 -85 8 -166 12 l-148 6 2 64 c1 35 0 66 -3 69 -7 7 -294 13 -390
8z m-258 -243 l0 -61 -55 3 c-66 4 -78 22 -17 26 41 3 42 4 42 41 0 21 3 41 7
44 17 17 23 2 23 -53z m800 -159 l0 -79 -66 -4 c-36 -1 -73 1 -82 6 -9 6 -119
10 -244 9 l-226 0 -4 69 c-2 39 -1 72 1 74 2 2 143 4 313 4 l308 0 0 -79z
m-636 -153 c3 -40 8 -108 12 -150 l6 -78 -241 0 -241 0 0 70 0 70 80 0 80 0 0
80 0 80 149 0 149 0 6 -72z m812 56 c-3 -9 -6 -40 -6 -70 l0 -54 -153 0 c-85
0 -156 2 -158 4 -2 2 -2 29 -1 60 l4 56 59 0 59 0 0 -45 c0 -25 5 -45 10 -45
6 0 10 25 10 55 l0 55 91 0 c79 0 90 -2 85 -16z m138 -5 c-3 -5 -10 -7 -15 -3
-5 3 -7 10 -3 15 3 5 10 7 15 3 5 -3 7 -10 3 -15z m8 -214 l3 -80 75 -1 75 -1
0 -78 0 -78 -135 -1 -135 -1 -1 -65 c-1 -36 -5 -67 -9 -70 -4 -3 -10 99 -13
227 l-5 232 64 3 c35 2 67 1 71 -2 4 -3 8 -41 10 -85z m-482 -84 c0 -88 3
-161 8 -163 4 -1 5 -33 4 -70 l-4 -68 -74 0 -74 0 0 80 0 80 -78 0 c-43 0 -81
2 -83 4 -2 2 -3 35 -1 73 l3 68 72 2 c40 1 100 4 135 8 l62 7 0 69 c0 55 3 69
15 69 13 0 15 -24 15 -159z m156 -179 c-2 -4 -30 -5 -63 -2 l-58 4 55 6 c57 6
73 4 66 -8z m644 -135 l0 -152 -70 0 c-38 0 -70 2 -70 5 -1 11 -1 286 -1 293
1 4 33 7 71 7 l70 0 0 -153z m-552 -12 c41 0 72 -4 72 -10 0 -6 -31 -10 -72
-10 l-73 0 -3 -57 -3 -58 -59 0 c-68 0 -74 -8 -68 -91 l3 -44 65 -6 65 -6 -55
-1 c-30 -1 -65 -5 -77 -8 -22 -6 -22 -5 -22 148 l-1 154 78 -5 c42 -3 110 -5
150 -6z m712 -308 l0 -153 -67 2 -68 3 -6 93 c-4 51 -7 119 -8 151 l-1 57 75
0 75 0 0 -153z m-632 -69 l3 -76 -71 -4 c-40 -1 -74 -1 -76 1 -2 2 -4 40 -4
83 l0 79 73 -3 72 -3 3 -77z m29 -190 c-2 -18 -4 -4 -4 32 0 36 2 50 4 33 2
-18 2 -48 0 -65z m763 -67 l0 -159 -62 5 c-35 2 -69 6 -75 8 -10 3 -13 43 -13
155 l0 150 75 0 75 0 0 -159z m-642 14 c8 -3 12 -28 12 -79 l0 -74 -71 -4
c-39 -2 -73 -1 -75 1 -2 2 -4 41 -4 86 l0 81 63 -4 c34 -2 68 -5 75 -7z m180
-242 l3 -73 -79 0 c-43 0 -81 2 -83 4 -2 2 -2 36 -1 76 l4 71 76 -3 77 -3 3
-72z m622 -211 c0 -71 -3 -178 -7 -238 l-8 -109 -5 75 -5 75 -53 1 c-29 1 -55
3 -57 6 -3 3 -8 73 -11 156 l-6 151 64 4 c35 2 69 4 76 5 9 2 12 -29 12 -126z
m-320 -37 c0 -5 2 -40 3 -77 l3 -67 -69 -3 c-38 -2 -71 -1 -73 1 -2 2 -4 38
-4 80 l0 76 70 0 c40 0 70 -4 70 -10z m800 -230 l0 -75 -70 0 -70 0 0 75 0 75
70 0 70 0 0 -75z m-320 -409 c0 -290 -4 -349 -25 -315 -4 5 -28 10 -54 9 -25
-1 -52 -1 -59 -1 -10 1 -12 51 -10 234 l3 232 60 5 60 5 -1 73 c0 52 3 72 12
72 10 0 13 -67 14 -314z m-522 154 l53 0 -3 -72 -3 -73 -72 -3 -73 -3 0 82 c0
79 1 81 23 75 12 -3 46 -6 75 -6z m-2038 -70 l0 -70 -70 0 -70 0 0 70 0 70 70
0 70 0 0 -70z m197 -17 c-2 -16 -4 -5 -4 22 0 28 2 40 4 28 2 -13 2 -35 0 -50z
m-1227 -33 l45 -5 -55 -7 c-30 -3 -56 -5 -56 -4 -1 0 1 26 4 56 l7 55 5 -45
c5 -45 5 -45 50 -50z m2961 -44 c2 -2 3 -36 1 -75 l-4 -71 -74 0 -74 0 0 75 0
75 73 0 c41 0 76 -2 78 -4z m-2091 -226 l0 -71 -76 3 -75 3 -3 68 -2 67 78 0
78 0 0 -70z m1921 66 c2 -2 3 -33 1 -69 l-4 -64 -291 -5 c-161 -3 -299 -7
-307 -9 -12 -3 -16 10 -18 74 l-3 77 309 0 c170 0 311 -2 313 -4z m-2094 -238
c-2 -18 -4 -6 -4 27 0 33 2 48 4 33 2 -15 2 -42 0 -60z"/>
<path d="M1954 4117 c-3 -8 -4 -36 -2 -63 l3 -49 58 -3 c32 -2 64 1 71 7 8 6
10 28 6 63 l-5 53 -63 3 c-47 2 -64 -1 -68 -11z"/>
<path d="M2133 4023 c15 -2 39 -2 55 0 15 2 2 4 -28 4 -30 0 -43 -2 -27 -4z"/>
<path d="M3210 1520 c0 -22 5 -40 10 -40 6 0 10 18 10 40 0 22 -4 40 -10 40
-5 0 -10 -18 -10 -40z"/>
<path d="M1602 3203 l3 -158 75 0 75 0 0 155 0 155 -78 3 -78 3 3 -158z"/>
<path d="M1925 3350 c-3 -5 -4 -76 -1 -157 l4 -148 69 2 c37 1 73 2 80 3 8 0
10 16 6 54 -3 30 -3 66 1 81 7 27 8 28 77 23 l69 -5 0 72 0 72 -112 6 c-153 9
-186 9 -193 -3z"/>
<path d="M970 3296 c0 -69 18 -84 22 -19 l3 48 48 3 c65 4 50 22 -19 22 l-54
0 0 -54z"/>
<path d="M1688 2713 l-78 -4 0 -77 0 -77 227 3 c142 2 232 7 240 14 17 13 17
120 1 136 -12 12 -184 14 -390 5z"/>
<path d="M493 2529 c4 -13 7 -40 8 -59 2 -32 2 -31 8 10 6 45 6 45 51 51 41 6
42 6 10 8 -19 1 -46 4 -59 8 -22 5 -23 4 -18 -18z"/>
<path d="M2578 1244 c-5 -4 -8 -31 -8 -61 l0 -53 70 0 c53 0 70 3 70 14 0 10
-15 13 -57 12 l-58 -1 -5 48 c-3 27 -8 45 -12 41z"/>
</g>
</svg>
