<?xml version="1.0" standalone="no"?><!DOCTYPE svg PUBLIC "-//W3C//DTD SVG 1.1//EN" "http://www.w3.org/Graphics/SVG/1.1/DTD/svg11.dtd"><svg t="1678723195197" class="icon" viewBox="0 0 1024 1024" version="1.1" xmlns="http://www.w3.org/2000/svg" p-id="3413" width="16" height="16" xmlns:xlink="http://www.w3.org/1999/xlink"><path d="M938.666667 352C938.666667 228.288 838.378667 128 714.666667 128a222.933333 222.933333 0 0 0-145.152 53.568C531.712 168.938667 457.792 149.333333 362.666667 149.333333c0 0-277.333333-6.656-277.333334 277.333334 0 126.314667 33.258667 201.557333 42.666667 256 10.88 62.954667 19.712 215.104 19.712 215.104A21.333333 21.333333 0 0 0 168.96 917.333333H320V704s29.44 21.333333 64 21.333333 64-21.333333 64-21.333333v192a21.333333 21.333333 0 0 0 21.333333 21.333333h149.333334s10.922667-201.344 21.333333-256c10.410667-54.656 42.666667-128 42.666667-128 172.010667 0 170.666667 128 170.666666 128v21.333334c0 23.530667-19.136 42.666667-42.666666 42.666666s-42.666667-19.136-42.666667-42.666666h-85.333333c0 70.592 57.408 128 128 128s128-57.408 128-128V362.666667h-0.64c0.277333-3.52 0.64-6.997333 0.64-10.666667z" fill="#78909C" p-id="3414"></path><path d="M810.666667 362.666667m-21.333334 0a21.333333 21.333333 0 1 0 42.666667 0 21.333333 21.333333 0 1 0-42.666667 0Z" fill="#37474F" p-id="3415"></path><path d="M405.333333 320c0 113.706667 57.365333 226.346667 170.666667 277.333333 0 0 45.845333-228.8 64-298.666666 0 0 21.333333-17.685333 21.333333-53.333334C661.333333 180.522667 608.810667 128 544 128S405.333333 193.685333 405.333333 320z" fill="#B0BEC5" p-id="3416"></path><path d="M930.218667 574.677333a153.6 153.6 0 0 1-21.802667-4.437333 104.853333 104.853333 0 0 1-14.101333-4.224c-4.885333-1.877333-10.133333-3.285333-15.189334-5.866667a194.197333 194.197333 0 0 1-30.677333-16.725333 214.058667 214.058667 0 0 1-47.402667-42.752 174.506667 174.506667 0 0 1-12.138666-16.426667c-2.688-4.117333-3.349333-5.696-3.648-6.08l-0.298667 0.213334A20.928 20.928 0 0 0 768 469.333333a21.333333 21.333333 0 0 0-21.333333 21.333334 20.906667 20.906667 0 0 0 4.352 12.288l-0.298667 0.213333 1.813333 2.005333c0.256 0.277333 0.490667 0.576 0.768 0.832 1.152 1.237333 2.56 2.730667 4.266667 4.394667a242.602667 242.602667 0 0 0 81.173333 52.010667 212.992 212.992 0 0 0 36.373334 10.624c5.802667 1.493333 11.669333 1.834667 17.045333 2.645333 5.376 0.874667 10.538667 1.024 15.274667 1.152 9.429333 0.64 17.258667 0.064 22.698666-0.32L938.666667 576l-8.448-1.322667z" fill="#EFEBE9" p-id="3417"></path><path d="M618.666667 917.333333h-149.333334a21.056 21.056 0 0 1-20.608-17.770666C452.352 861.76 483.925333 832 522.666667 832c11.498667 0 22.272 2.837333 32 7.488A73.898667 73.898667 0 0 1 586.666667 832a73.813333 73.813333 0 0 1 36.586666 9.984C620.458667 884.522667 618.666667 917.333333 618.666667 917.333333z m-426.666667-10.666666a32 32 0 0 1 64 0 32 32 0 0 1 64 0v-67.178667A73.898667 73.898667 0 0 0 288 832c-11.434667 0-22.293333 2.581333-32 7.210667A74.154667 74.154667 0 0 0 224 832a74.624 74.624 0 0 0-74.432 72.426667 21.141333 21.141333 0 0 0 19.392 12.906666H192v-10.666666z m369.152-316.736C457.770667 536.042667 405.333333 428.586667 405.333333 320c0-77.162667 27.626667-131.584 63.850667-162.346667a692.842667 692.842667 0 0 0-53.44-6.250666C384.021333 190.869333 362.666667 247.36 362.666667 320c0 134.826667 85.056 215.936 198.442666 270.314667l0.042667-0.384zM320 682.666667v21.333333s29.44 21.333333 64 21.333333 64-21.333333 64-21.333333v-85.333333s-14.165333 64-128 64z m298.666667-405.333334c-11.776 0-21.333333 9.557333-21.333334 21.333334s21.333333 85.333333 21.333334 85.333333 21.333333-73.557333 21.333333-85.333333-9.557333-21.333333-21.333333-21.333334z m29.610666-85.632l0.938667 1.941334a120.277333 120.277333 0 0 1 5.418667 12.842666c1.002667 2.837333 1.877333 5.738667 2.666666 8.682667 0.362667 1.344 0.725333 2.688 1.045334 4.053333 0.682667 2.965333 1.194667 5.994667 1.642666 9.045334 0.192 1.301333 0.448 2.56 0.597334 3.882666 0.448 4.309333 0.746667 8.704 0.746666 13.184 0 2.816-0.341333 5.312-0.576 7.893334 11.626667-32.682667 21.077333-78.101333 6.144-119.893334a222.506667 222.506667 0 0 0-52.288 18.453334h0.021334a117.888 117.888 0 0 1 33.642666 39.914666z" fill="#546E7A" p-id="3418"></path><path d="M192 906.666667a32 32 0 0 1 64 0v10.666666H192v-10.666666z m64 10.666666h64v-10.666666a32 32 0 0 0-64 0v10.666666z m234.666667 0h64v-10.666666a32 32 0 0 0-64 0v10.666666z m64 0h64v-10.666666a32 32 0 0 0-64 0v10.666666z" fill="#CFD8DC" p-id="3419"></path></svg>